<svg width="166" height="86" viewBox="0 0 166 86" fill="none" xmlns="http://www.w3.org/2000/svg">
<path d="M95.6718 0.113481C92.9111 0.397583 90.4526 0.986081 87.8733 1.96015C86.765 2.3863 81.6868 5.04469 81.8077 5.14615C81.848 5.16645 82.6944 5.08527 83.6818 4.92293C91.1579 3.78652 101.616 6.28256 114.01 12.1472C117.153 13.6489 120.055 15.11 122.453 16.4494C123.037 16.7741 123.561 16.9973 123.602 16.9567C123.662 16.8958 123.461 16.3276 123.178 15.6782C121.324 11.5385 120.78 9.18447 120.921 6.28256C120.982 5.10557 121.103 3.86769 121.183 3.52271C121.324 2.93421 121.324 2.93421 120.216 3.88798C119.571 4.45619 118.906 4.84176 118.624 4.84176C117.959 4.84176 116.085 4.27355 112.599 3.01538C105.889 0.620807 100.206 -0.353259 95.6718 0.113481Z" fill="#303657"/>
<path d="M75.9127 14.9026C71.3585 15.4911 66.5625 16.8508 63.4592 18.4336C62.0284 19.1642 61.7664 19.4686 62.5523 19.4686C63.7211 19.4686 67.8521 19.8947 70.6733 20.2803C84.3964 22.2284 93.6862 26.3479 97.656 32.2329L98.5023 33.4708H100.175C101.525 33.4708 101.888 33.5316 101.989 33.7954C102.23 34.4448 102.089 34.8304 101.283 35.6015C100.82 36.048 99.9935 36.9612 99.4293 37.6308C98.4822 38.7672 98.3411 38.8687 96.991 39.2137C94.8751 39.7413 93.928 40.2689 93.3637 41.243C92.2957 43.0897 92.5577 44.6319 93.928 44.6319C94.6131 44.6319 95.5401 44.2058 97.5552 42.9476C98.2001 42.5417 99.127 42.1562 99.6106 42.075C100.538 41.933 101.062 41.4459 103.903 37.9758C104.467 37.2858 105.011 36.7176 105.092 36.7176C105.434 36.7176 107.046 34.9116 107.389 34.1201C107.893 32.9837 107.651 32.172 106.422 31.0356L105.515 30.2036L103.762 30.3253C102.17 30.4471 101.968 30.4268 101.485 30.0412C100.538 29.2904 100.276 27.119 100.719 23.7504C100.981 21.7414 100.9 21.3152 99.9734 20.2803C98.2404 18.3525 94.069 16.6275 88.0035 15.3288C84.3964 14.5577 79.7213 14.3953 75.9127 14.9026Z" fill="#303657"/>
<path d="M150.181 15.8812C147.924 16.49 146.937 17.2408 146.131 18.9455C144.881 21.5835 146.272 24.6275 149.234 25.7639C150.766 26.3321 153.567 26.2509 154.836 25.5813C156.146 24.9116 156.952 24.1202 157.456 23.0041C159.39 18.844 155.017 14.5825 150.181 15.8812Z" fill="#303657"/>
<path d="M126.906 20.8124C126.906 20.9341 127.39 22.1111 127.995 23.4302C129.002 25.703 129.123 25.8653 130.01 26.3727C131.642 27.2858 132.609 28.2599 133.738 30.1675C135.128 32.5012 136.136 33.6782 137.566 34.6522C139.239 35.7886 140.569 36.1742 142.725 36.1742C144.841 36.1742 146.332 35.7683 148.005 34.7537C149.476 33.8608 151.108 33.252 152.015 33.252C152.539 33.252 152.881 33.4143 153.325 33.8405C153.869 34.3884 153.909 34.5508 153.909 35.8901C153.909 36.6815 153.728 38.8732 153.506 40.7198C152.922 45.509 152.418 47.0919 151.048 48.4109C149.698 49.7097 149.536 49.7502 141.415 49.7908C133.556 49.8314 131.723 49.9938 127.813 51.0084C124.408 51.881 121.224 53.8088 120.156 55.6555C119.853 56.1628 119.471 57.2992 119.309 58.1718C119.007 59.6938 119.007 59.9576 119.43 63.0016C120.216 68.7648 121.264 73.5134 122.654 77.4908C123.541 80.068 123.662 79.8651 123.178 76.6182C122.534 72.3973 122.07 67.7907 122.07 65.802C122.07 63.4886 122.574 61.094 123.36 59.7547C124.629 57.5631 127.632 55.6352 131.179 54.7423C133.153 54.235 135.249 54.1741 142.927 54.4379C148.569 54.6206 150.141 54.4988 152.237 53.7277C153.587 53.2001 155.058 51.8404 155.783 50.3793C156.509 48.9385 157.073 46.7469 157.557 43.5C158.141 39.5631 158.04 33.8811 157.355 31.73C155.965 27.3873 153.486 26.8191 149.153 29.8225C145.687 32.2171 141.536 32.8258 138.695 31.385C137.224 30.6139 135.733 28.8484 134.544 26.4538C133.274 23.8766 131.964 22.4155 129.99 21.4415C128.72 20.8124 126.906 20.4471 126.906 20.8124Z" fill="#303657"/>
<path d="M41.0215 29.9239C40.8602 30.066 41.4446 31.7909 41.6864 31.9532C41.7872 32.0141 42.0693 31.9126 42.3111 31.7503C42.956 31.2836 44.0845 31.3241 44.0845 31.7706C44.0643 32.5011 43.3187 35.0378 42.4925 37.0874C41.9484 38.4673 41.6864 39.3805 41.7671 39.6849C41.8275 39.9487 41.7872 40.1516 41.6663 40.1516C41.5454 40.1516 41.4648 40.314 41.4849 40.4966C41.5454 41.2069 41.4648 41.4098 41.1625 41.288C40.8199 41.1663 40.7393 41.6736 41.0618 41.8765C41.2028 41.9577 41.2028 42.12 41.0618 42.3839C40.6789 43.1144 40.296 45.4481 40.4572 46.0569C40.6587 46.7672 40.4572 46.9295 39.5706 46.7672C38.7041 46.6048 38.3413 46.9701 38.6436 47.7615C38.825 48.2485 38.9257 48.3094 39.4698 48.1877C39.8325 48.1268 41.0013 48.0659 42.1096 48.0659C43.621 48.0659 44.1046 48.005 44.0442 47.8021C43.9837 47.6803 43.5605 47.4571 43.0567 47.3354C42.2708 47.1527 42.1701 47.0513 42.1096 46.5033C42.029 45.7119 43.0366 41.8562 44.9711 35.4842C45.2331 34.6522 45.616 33.3737 45.8175 32.6635L46.1802 31.385L47.4699 31.5068C48.4371 31.6083 48.7394 31.588 48.679 31.385C48.3767 30.4921 45.8981 29.8022 42.956 29.8022C41.9484 29.8022 41.0819 29.8631 41.0215 29.9239Z" fill="#303657"/>
<path d="M60.9309 31.6691C60.8906 31.8112 60.7496 32.5214 60.6085 33.252C60.4876 33.9825 60.3264 34.6319 60.2861 34.7131C60.2256 34.8146 59.6009 34.8754 58.8755 34.8754C57.4649 34.8754 57.1626 35.0987 57.5858 35.8698C57.747 36.1945 57.9888 36.2959 58.6941 36.2959C59.742 36.2959 59.7622 36.3162 59.1979 38.1426C58.9964 38.8529 58.7143 39.8269 58.5934 40.314C58.3717 41.1866 58.15 41.3692 56.8402 41.6939L56.3163 41.8359L56.4573 40.6995C56.5782 39.5834 56.5581 39.5225 55.8528 38.7311C55.4498 38.2847 55.0064 37.9194 54.8654 37.9194C54.7243 37.9194 54.3616 38.5282 54.0593 39.279C53.2533 41.3489 51.1978 45.022 50.4119 45.8337L49.7268 46.5439V45.9554C49.7268 45.3872 50.815 41.3895 51.1575 40.7198C51.5807 39.9284 50.3918 38.5485 49.5253 38.8326C49.2835 38.9137 48.6789 39.5428 48.1751 40.2125C47.6714 40.9025 47.2482 41.491 47.2079 41.5315C47.1676 41.5721 47.1676 41.1257 47.1676 40.5575C47.2079 39.6849 47.1273 39.4414 46.7242 39.1167C46.0794 38.5891 45.6965 38.6296 45.6965 39.2181C45.6965 39.482 45.4346 40.5778 45.092 41.6736C44.3665 44.0479 44.3464 44.4537 44.9509 45.6307C45.5756 46.8889 46.0189 46.9295 46.1802 45.7322C46.3414 44.7176 47.7117 41.7751 48.2557 41.3489C48.558 41.0851 48.5782 41.1257 48.4371 41.8765C48.0744 43.9667 47.9132 45.2046 47.9132 46.1787C47.9132 47.031 47.9938 47.2948 48.3565 47.5383C49.7066 48.4921 50.6336 47.4165 54.0996 40.6995C54.5631 39.8269 54.7646 40.0502 54.7646 41.491C54.7646 42.7897 54.7243 42.8709 53.8981 43.7841C53.4346 44.3117 52.8704 45.0828 52.6487 45.4887C52.3062 46.1381 52.3062 46.2801 52.548 46.7469C52.9107 47.4165 53.7369 47.863 54.6034 47.863C55.4296 47.863 55.6311 47.7209 56.0543 46.9092C56.276 46.4628 56.3767 45.7322 56.3767 44.5552C56.3767 42.6883 56.5178 42.3839 57.5254 42.323C57.9284 42.3027 58.0694 42.3636 58.0291 42.5868C57.9888 42.7491 57.9082 43.6826 57.8478 44.6364C57.747 46.2395 57.7672 46.4222 58.1702 46.828C58.3919 47.0513 58.815 47.2542 59.077 47.2542C59.5405 47.2542 60.3868 46.5439 60.9511 45.6713C61.1324 45.4278 61.334 45.2249 61.4347 45.2249C61.5355 45.2249 61.6161 45.4278 61.6161 45.6713C61.6161 46.2598 61.7974 46.5236 62.3818 46.828C63.1073 47.2136 63.6514 46.9498 64.538 45.7931L65.3441 44.7176L65.465 45.7119C65.5859 46.7469 65.9889 47.2542 66.7547 47.2542C67.3592 47.2542 67.9436 46.7672 68.5884 45.7322C68.9109 45.2249 69.2333 44.819 69.3139 44.819C69.3945 44.819 69.596 45.1234 69.7572 45.509C69.9184 45.8946 70.2811 46.3613 70.5431 46.5439C71.2081 46.9701 71.7119 46.7266 72.3164 45.6307C72.8202 44.7378 73.0822 44.8596 73.1023 45.9351C73.1023 46.686 73.2837 46.9498 73.8681 47.1527C74.6338 47.3759 75.1981 47.1121 75.9235 46.1381C76.2862 45.6307 76.6691 45.2249 76.7497 45.2249C76.8303 45.2249 76.9311 45.5699 76.9714 45.9757C77.0117 46.5439 77.1729 46.8077 77.5558 47.031C78.382 47.4977 78.9865 47.1933 79.9739 45.8337L80.8606 44.6161L81.1024 45.5699C81.6667 47.8224 83.6818 47.8224 85.1931 45.6104C85.576 45.022 86.2007 44.2711 86.5634 43.9058C87.2687 43.1956 87.3896 42.9318 86.8657 43.1347C86.6037 43.2362 86.5634 43.1956 86.7045 42.8709C86.8052 42.668 86.906 42.0592 86.9665 41.5518C87.0269 40.7198 86.9665 40.5169 86.3821 39.8675C85.7171 39.0964 84.4677 38.3252 83.8631 38.3252C83.1982 38.3252 82.1906 39.7052 81.7473 41.2272C81.2636 42.8709 80.6389 44.0885 79.712 45.1234C78.9865 45.9757 78.7447 46.0163 78.7447 45.2655C78.7447 44.4537 80.7195 36.8642 81.0823 36.2554C81.1629 36.1336 82.3518 36.0727 84.3669 36.1133C87.0672 36.1742 87.5105 36.1539 87.5105 35.8901C87.5105 35.5451 85.6163 35.1392 83.8631 35.0987C83.2989 35.0784 82.5332 35.0175 82.1906 34.9566C81.5659 34.8146 81.5457 34.7943 81.6868 33.942C81.8279 33.0085 81.445 32.1156 80.7195 31.6488C80.2158 31.3444 79.9538 31.5271 79.9538 32.1968C79.9538 32.5011 79.8329 33.1911 79.6918 33.7593L79.4299 34.774L78.0193 34.8754C76.8908 34.9566 76.6288 35.0378 76.5684 35.3422C76.4475 35.951 76.9109 36.2959 77.8581 36.2959C78.8455 36.2959 78.9462 36.5395 78.523 37.6556C78.2409 38.447 77.1326 42.7897 77.1326 43.1753C77.1326 43.5811 75.3996 45.8337 75.0973 45.8337C74.7547 45.8337 74.9764 44.332 75.6213 42.1809C76.2661 40.0907 76.2056 39.5428 75.2585 38.9746C74.7144 38.6499 74.6741 38.6499 74.392 39.0355C74.2308 39.2587 73.9487 39.9487 73.7673 40.5575C73.3643 41.9577 71.7723 45.4278 71.5305 45.4278C71.1477 45.4278 71.1477 45.164 71.5305 43.7435C71.7522 42.9318 71.9739 41.6736 72.0343 40.9431C72.1351 39.6646 72.1149 39.5834 71.591 39.1573C70.9058 38.6296 70.6842 38.6094 70.6842 39.137C70.6842 39.3602 70.3618 40.5372 69.9789 41.7345C69.4146 43.5 69.1124 44.0885 68.3869 44.9205C67.601 45.8134 67.4801 45.8946 67.3391 45.5496C67.198 45.164 68.1854 40.8416 69.1325 37.7165L69.596 36.1945H72.7598C74.7749 36.1945 75.984 36.1133 76.125 35.9713C76.4072 35.6872 75.1376 35.3422 73.1829 35.1595C72.4172 35.0987 71.5305 35.0175 71.188 34.9769C70.8655 34.9566 70.4625 34.916 70.3215 34.8957C70.1199 34.8754 70.0796 34.6522 70.1804 33.9825C70.2811 33.3535 70.2207 32.9273 69.999 32.4809C69.7169 31.9127 68.9512 31.2836 68.7698 31.4662C68.7295 31.5068 68.528 32.2576 68.3265 33.1505L67.9637 34.774L66.9965 34.8348C65.9889 34.8957 65.9486 34.9566 66.2509 35.7683C66.3718 36.1133 66.5935 36.2959 66.8756 36.2959C67.3995 36.2959 67.3995 36.2757 66.3315 40.3546C65.7068 42.7694 65.4247 43.4797 64.8 44.3523C64.3768 44.9408 63.8932 45.4278 63.732 45.4278C63.3491 45.4278 63.3491 45.4684 63.9133 43.5203C64.1954 42.6274 64.4776 41.3489 64.5582 40.6995C64.6791 39.6443 64.6388 39.4617 64.2156 39.0152C63.3894 38.1223 62.9662 38.3455 62.4826 39.8878C62.2408 40.6589 61.9586 41.7954 61.8377 42.4447C61.7168 43.0941 61.5556 43.7435 61.4952 43.8652C61.1324 44.474 59.9637 45.8337 59.7622 45.8337C59.3994 45.8337 59.7219 43.9464 60.7093 40.3546C61.878 36.093 61.8579 36.093 62.6236 36.093C63.1677 36.093 63.2282 36.0321 63.2282 35.4842C63.2282 34.9972 63.1476 34.8754 62.805 34.8754C62.4423 34.8754 62.402 34.7943 62.543 33.9622C62.6438 33.252 62.5833 32.9273 62.3012 32.4809C61.6967 31.5677 61.072 31.1821 60.9309 31.6691ZM85.5559 41.2272C85.6365 42.0998 85.2737 42.2418 84.9916 41.4504C84.6894 40.6792 84.7498 40.314 85.1528 40.3951C85.3946 40.4357 85.5156 40.6792 85.5559 41.2272ZM84.8103 42.2418C85.1327 43.2768 85.1327 43.3376 84.649 44.6161C84.0848 46.1381 83.7019 46.6454 83.0369 46.6454C82.6541 46.6454 82.5735 46.5439 82.5735 46.0569C82.5735 45.3872 83.4601 42.4244 83.9236 41.5113C84.2863 40.801 84.3871 40.9025 84.8103 42.2418ZM54.4825 45.2452C54.2407 46.7266 53.7369 47.2339 53.1727 46.5642C52.8905 46.2192 53.1122 45.651 53.8175 44.8596C54.4422 44.1899 54.6236 44.3117 54.4825 45.2452Z" fill="#303657"/>
<path d="M63.8328 36.1742C63.8328 37.128 63.9134 37.7571 64.0746 37.8382C64.3567 38.0209 65.8479 36.3569 65.8479 35.8292C65.8479 35.4437 64.7396 34.6725 64.1955 34.6725C63.8731 34.6725 63.8328 34.8755 63.8328 36.1742Z" fill="#303657"/>
<path d="M160.499 44.2508C160.579 44.3929 161.002 45.022 161.405 45.6713C162.393 47.1527 163.098 48.7965 163.642 50.8055C164.005 52.1448 164.086 52.9362 164.065 55.2699C164.045 57.7254 163.965 58.3545 163.501 59.8968C162.05 64.7468 158.987 68.5213 154.816 70.6318C151.491 72.3364 147.158 72.864 143.572 72.032C138.675 70.8956 134.826 67.8719 132.367 63.2451C131.924 62.4334 131.38 61.0535 131.158 60.1809C130.957 59.3083 130.715 58.5168 130.634 58.4559C130.413 58.2327 130.735 61.8855 131.078 63.1842C131.581 65.2338 133.415 68.7445 134.826 70.4085C137.587 73.6757 141.597 75.9688 145.788 76.6994C147.924 77.0849 151.652 76.8211 153.708 76.1718C159.108 74.4469 163.199 70.7332 165.315 65.6803L166 64.0568V58.1313V52.2057L165.194 50.5214C164.146 48.35 162.796 46.2598 161.627 45.0017C160.781 44.0885 160.116 43.642 160.499 44.2508Z" fill="#303657"/>
<path d="M159.249 44.4132C159.189 44.5146 159.088 45.0422 159.008 45.5902C158.907 46.5439 158.907 46.5642 160.096 47.7818C160.962 48.6747 161.486 49.4458 161.97 50.5619C162.695 52.2463 163.078 52.5913 162.856 51.3534C162.474 49.182 161.668 47.1933 160.398 45.2858C159.693 44.2102 159.471 44.0479 159.249 44.4132Z" fill="#303657"/>
<path d="M128.418 57.766C128.095 57.969 127.33 58.6792 126.765 59.3083C125.939 60.2012 125.697 60.6273 125.697 61.1347C125.697 62.0479 127.954 66.492 129.385 68.3996C130.03 69.2722 131.259 70.6115 132.085 71.3826C133.597 72.7829 135.612 74.0613 135.894 73.7975C135.975 73.7163 135.511 73.0873 134.886 72.3973C132.69 70.023 131.158 67.3849 130.09 64.2395C129.566 62.6769 129.445 61.9667 129.365 59.8765C129.325 58.5169 129.224 57.4007 129.143 57.4007C129.083 57.4007 128.76 57.5631 128.418 57.766Z" fill="#303657"/>
<path d="M19.2983 66.3195C18.5124 66.4615 18.4318 66.6847 18.8751 67.5573L19.2781 68.3691L20.2051 68.0444C20.7492 67.882 21.2127 67.8212 21.3134 67.9226C21.4948 68.1256 20.7693 71.2507 20.2454 72.4886C19.9834 73.1379 19.8222 73.2597 18.9154 73.4829C17.6459 73.7873 17.5854 74.0917 18.7945 74.0917C19.2983 74.0917 19.7013 74.112 19.7013 74.1526C19.7013 74.1932 19.3386 75.4513 18.8953 76.9327C18.4519 78.4141 18.0892 79.8955 18.0892 80.2202C18.0892 80.6058 17.9683 80.8493 17.7466 80.9102C17.5451 80.971 17.2429 81.0928 17.0817 81.1943C16.4368 81.5392 17.2429 82.9192 17.9885 82.7568C19.9028 82.2901 23.5704 81.6001 24.1749 81.6001C24.9004 81.6001 25.3235 81.3363 24.9608 81.1131C24.8802 81.0522 23.651 80.9305 22.2404 80.8696C19.3991 80.7072 19.4797 80.7681 19.9834 79.1447C20.1245 78.6576 20.5074 77.3386 20.8096 76.2225C21.1321 75.1064 21.4343 74.1323 21.4948 74.0511C21.5754 73.9699 22.2807 73.9699 23.1069 74.0714C24.7996 74.254 25.1422 74.0714 25.1422 73.0365V72.4074L23.5301 72.5494C22.6434 72.6306 21.918 72.6306 21.918 72.5494C21.918 72.2856 23.1472 68.1458 23.3286 67.8009C23.4495 67.5573 24.0339 67.4965 26.7341 67.4965C28.5075 67.4965 29.9785 67.4559 29.9785 67.395C29.9785 67.2124 29.2128 66.8065 28.3261 66.4818C27.6611 66.2586 26.5528 66.1977 23.6308 66.218C21.5351 66.218 19.5804 66.2789 19.2983 66.3195Z" fill="#303657"/>
<path d="M47.5303 67.1515C47.1071 69.1402 47.0467 69.2214 45.7973 69.2214C44.9912 69.2214 44.6487 69.3026 44.5681 69.5258C44.3666 70.0331 44.8905 70.439 45.7167 70.439C46.16 70.439 46.5026 70.5202 46.5026 70.6216C46.5026 70.784 45.1928 75.8369 44.9711 76.5066C44.7494 77.156 44.689 76.4863 44.8905 75.7355C45.0517 75.0861 45.0517 74.802 44.8099 74.3555C44.3867 73.5235 43.4396 72.6915 42.7141 72.4683C42.1701 72.3262 41.9685 72.3668 41.4849 72.793C40.961 73.2394 40.6386 73.8888 39.7721 76.324C39.369 77.4401 37.9584 79.1447 37.6763 78.8606C37.5353 78.7185 37.636 78.0083 37.9786 76.7298C38.7645 73.767 38.7645 73.6047 38.1196 73.0974C37.4143 72.5292 37.2128 72.6306 36.8501 73.6047C35.4597 77.4807 34.7342 78.9621 34.4118 78.6374C34.311 78.5359 34.3916 77.8459 34.5932 77.0342C35.2582 74.5382 35.2985 73.8279 34.8148 73.2191C34.573 72.9147 34.2707 72.6712 34.1498 72.6712C34.0088 72.6712 33.7468 73.28 33.5654 74.0511C33.3639 74.802 33.0617 75.9181 32.9004 76.5472C32.5176 77.9271 32.7795 78.9824 33.6259 79.6317C34.2909 80.1188 34.835 79.8752 35.2178 78.9621C35.5604 78.13 35.7216 78.1909 35.9433 79.2056C36.0844 79.8955 36.2456 80.1188 36.6889 80.2608C37.3942 80.5246 37.7166 80.3217 38.6234 79.1447C38.9861 78.6577 39.369 78.2315 39.4496 78.1909C39.5302 78.1706 39.6511 78.4953 39.7317 78.9418C40.0743 81.1537 42.6134 80.6464 43.9031 78.0895C44.5076 76.9328 44.8905 77.0951 44.8905 78.4953C44.8905 79.8955 45.0315 80.1391 45.7973 80.3014C46.4421 80.4232 46.9862 80.0376 47.6311 79.0635C48.0945 78.3533 48.2558 78.4344 48.3767 79.4085C48.5782 80.9102 49.888 81.5799 51.4598 80.9914C52.145 80.7276 53.3137 79.7129 53.9384 78.82C54.4624 78.1098 54.7646 77.9677 54.7646 78.4344C54.7646 78.5968 54.9863 79.0026 55.2684 79.307C55.6916 79.7941 55.7924 79.8347 55.9737 79.5708C56.0745 79.4085 56.1752 79.0635 56.1752 78.82C56.1752 78.5765 56.5984 77.5415 57.1022 76.5472C58.0292 74.7411 58.5934 74.2135 58.5934 75.1673C58.5934 75.6746 59.2785 76.1413 59.7622 75.979C60.145 75.8369 60.6085 74.802 60.6085 74.112C60.6085 73.4221 59.9435 72.6712 59.3591 72.6712C59.1576 72.6712 58.5934 73.1988 58.0493 73.8888C57.5455 74.5585 57.082 75.1064 57.0216 75.1064C56.9813 75.1064 57.0014 74.802 57.0619 74.4367C57.1626 73.9091 57.082 73.625 56.7596 73.2191C56.538 72.9147 56.2357 72.6712 56.1148 72.6712C55.9737 72.6712 55.7118 73.3206 55.5304 74.112C55.1072 75.8572 54.3818 77.4807 53.7369 78.1098C51.9838 79.7738 50.5732 80.6667 50.0291 80.4434C49.747 80.342 49.7067 80.0985 49.7671 79.1244C49.8679 77.8662 50.0694 77.5415 50.8553 77.5415C51.8225 77.5415 53.2533 76.1413 53.475 74.9643C53.5959 74.3758 53.5153 74.1932 52.81 73.5032C51.0165 71.6972 49.6664 72.3465 48.9409 75.4108C48.5177 77.1154 46.9661 79.3273 46.5227 78.8403C46.3414 78.6577 47.5102 73.6859 48.2558 71.4536L48.6185 70.3375H51.5203C55.9536 70.3375 55.3087 69.7896 50.291 69.3026L48.9409 69.1808L49.0618 68.2068C49.1626 67.3342 49.1223 67.1718 48.6588 66.7051C48.3767 66.421 48.0542 66.1774 47.9333 66.1774C47.8326 66.1774 47.6512 66.6239 47.5303 67.1515ZM52.4069 74.3758C52.3666 75.0658 51.6412 76.2428 51.0165 76.6689C50.3313 77.1154 50.2306 76.8922 50.6538 75.7963C51.3188 74.0309 52.5077 73.0771 52.4069 74.3758ZM43.6008 74.3758C43.6613 74.5382 43.6814 74.9237 43.6411 75.2484L43.5807 75.8166L43.2582 75.2078C42.9358 74.5991 42.956 74.0917 43.2985 74.0917C43.3993 74.0917 43.5403 74.2135 43.6008 74.3758ZM42.9761 75.7355C43.3187 76.7298 43.2985 76.7907 42.8955 77.9068C42.3917 79.2259 41.9685 79.7738 41.4245 79.7738C41.1423 79.7738 41.0617 79.6114 41.0617 79.1041C41.0617 78.0286 42.2104 74.7005 42.5731 74.7005C42.6134 74.7005 42.7947 75.1673 42.9761 75.7355Z" fill="#303657"/>
<path d="M7.32842 66.6239C7.26797 66.7659 7.18736 67.2529 7.12691 67.6994C7.06645 68.1458 6.68358 69.5461 6.3007 70.8042C5.63571 72.9147 5.53495 73.077 5.15208 72.9553C4.38633 72.7118 3.17725 72.8335 2.51225 73.2191C1.08151 74.0714 -0.228329 76.7501 0.0336381 78.2518C0.174697 79.0229 1.16211 79.9767 1.80696 79.9767C2.20998 79.9767 3.29815 78.9823 4.12436 77.8459L4.56769 77.2371V78.4953C4.58784 79.8752 4.89011 80.3825 5.71631 80.3825C6.17979 80.3825 7.40903 79.3273 7.40903 78.9214C7.40903 78.82 7.55008 78.7591 7.7113 78.7591C7.93296 78.7591 8.01356 78.9823 8.01356 79.5708C8.01356 80.7681 8.67856 81.3972 9.9884 81.3972C11.4796 81.3972 12.7693 80.3622 14.1396 78.0691C15.0262 76.5877 14.865 76.121 13.9582 77.5009C13.2328 78.5562 11.5803 80.0173 10.472 80.5449C9.82718 80.8696 9.76673 80.8696 9.50476 80.484C9.2428 80.139 9.26295 79.4288 9.54507 78.3329C9.58537 78.1503 10.0488 77.9068 10.6131 77.7647C11.5803 77.5212 12.3663 76.8921 12.8297 75.9789C13.2328 75.1875 13.0917 74.5584 12.3058 73.7873C10.5728 72.0827 9.40401 72.7118 8.51735 75.8166C8.17478 77.0748 6.92539 78.962 6.46191 78.962C6.32085 78.962 6.19995 78.7591 6.19995 78.4953C6.19995 77.9677 7.36872 73.4423 8.23523 70.6216C8.96068 68.227 8.96068 67.6182 8.31583 66.908C7.7919 66.3398 7.44933 66.2383 7.32842 66.6239ZM5.27298 74.3352C5.11177 75.1266 3.66088 77.3995 2.77422 78.2518C2.25028 78.7591 2.12938 78.7997 1.96817 78.5562C1.38378 77.6227 3.78179 73.6858 4.93041 73.6858C5.39389 73.6858 5.41404 73.7467 5.27298 74.3352ZM12.0438 74.5584C12.0438 75.5122 10.2705 77.7039 9.94809 77.1762C9.82718 76.9733 10.734 74.944 11.1773 74.457C11.6207 73.9496 12.0438 74.0105 12.0438 74.5584Z" fill="#303657"/>
<path d="M76.8304 69.2214C76.6087 69.5867 76.6893 71.4942 76.9311 71.7377C77.1125 71.9001 77.3342 71.7783 77.8581 71.1695C78.6843 70.2158 78.7045 69.9925 78.0193 69.4446C77.4349 68.9779 77.0319 68.8967 76.8304 69.2214Z" fill="#303657"/>
<path d="M75.8631 72.6103C75.5407 73.1582 74.8556 76.0196 74.775 77.2371C74.6339 79.1041 74.775 79.7332 75.4601 79.997C76.2259 80.2811 76.6289 80.0782 77.4752 78.9215L78.2208 77.8865L78.3821 78.5359C78.5433 79.1447 79.5105 79.9767 80.0949 79.9767C80.4979 79.9767 81.6063 78.9215 82.2108 77.9677C82.5131 77.4604 82.7952 77.0951 82.7952 77.156C82.8154 77.1966 82.8355 77.8256 82.8557 78.5359C82.896 79.9158 83.1982 80.3826 84.105 80.3826C84.6088 80.3826 85.5761 79.2867 86.4829 77.6836C87.3293 76.2022 86.9867 76.0804 86.0194 77.5213C85.2134 78.6982 84.7096 79.1447 84.4678 78.9012C84.4073 78.8403 84.5685 78.0489 84.8103 77.156L85.2537 75.4919L84.8506 74.944C84.629 74.6396 84.2864 74.3758 84.105 74.3352C83.7625 74.2541 83.1781 74.8426 82.7549 75.7152C82.4325 76.3645 80.9614 78.4141 80.6793 78.5968C80.377 78.7997 80.1554 78.5765 80.1554 78.0692C80.1554 77.3183 81.5055 74.7817 82.2914 74.112C83.0169 73.4626 83.9035 73.28 84.3469 73.7265C84.5282 73.9091 84.5887 73.8888 84.5887 73.6453C84.5887 72.8336 82.1101 72.3871 80.9816 72.9756C80.1957 73.3815 79.0068 74.802 78.7246 75.6949C78.2813 77.0139 76.7297 79.0432 76.4072 78.6982C76.3468 78.6374 76.508 77.8256 76.7901 76.8922C77.6163 74.1526 77.6566 73.5844 77.0521 72.9756C76.5483 72.4683 76.0445 72.3262 75.8631 72.6103Z" fill="#303657"/>
<path d="M28.185 73.0162C27.379 73.422 26.2908 74.8831 25.9482 75.9992C25.5855 77.1965 25.646 78.7185 26.0893 79.2055C26.9558 80.1999 27.7417 80.0781 28.9306 78.7997C29.2732 78.4141 29.5755 78.2315 29.5755 78.3735C29.5755 78.5359 29.3135 79.6114 28.9709 80.7884C28.2656 83.3047 28.2253 84.0556 28.7896 84.9688C29.4344 86.024 29.6762 85.8414 29.9584 84.1367C30.0994 83.2844 30.7241 80.8493 31.3488 78.6982C32.5579 74.4976 32.6586 73.7061 32.0944 73.077C31.7921 72.7321 31.4899 72.6712 30.3009 72.6712C29.374 72.6712 28.6284 72.7929 28.185 73.0162ZM30.9861 73.8076C30.9861 74.6396 28.7493 78.13 27.9432 78.5562C26.6737 79.2461 27.9231 75.776 29.515 74.1729C30.2405 73.4423 30.9861 73.2597 30.9861 73.8076Z" fill="#303657"/>
<path d="M63.7319 72.9553C62.3616 73.5641 61.1526 75.6949 61.1324 77.5821C61.1123 78.5359 61.1929 78.82 61.5959 79.2462C62.2407 79.9361 62.6841 80.0579 63.3692 79.6926C63.873 79.4491 64.1954 79.0635 65.344 77.4401C65.606 77.0748 65.6262 77.1763 65.6463 78.4344C65.6463 79.5303 65.7269 79.8955 66.009 80.0985C66.5531 80.5246 67.0771 80.4231 67.7219 79.8144L68.3063 79.2664L68.2257 79.8752C68.1652 80.1999 67.9033 81.2755 67.6614 82.2495C67.198 83.9947 67.198 84.0353 67.5607 84.847C68.2257 86.3284 68.8504 86.3893 68.8705 84.9891C68.8705 84.2382 69.8579 80.342 70.0998 80.0782C70.2207 79.9767 70.3617 79.9767 70.5229 80.139C70.8454 80.4637 71.591 80.4434 72.2761 80.0985C73.9084 79.2462 75.1779 75.4716 74.3718 73.8888C73.8882 72.9553 73.3441 72.8944 72.5179 73.6859C71.732 74.3961 71.5708 74.4367 71.3894 73.8888C71.3088 73.6656 71.0267 73.3206 70.7446 73.138C70.3214 72.8538 70.2207 72.8538 70.0594 73.0974C69.9587 73.2597 69.8781 73.6656 69.8781 74.0106C69.8781 75.2078 69.1123 77.1966 68.3063 78.13C67.8831 78.6374 67.4398 78.9823 67.339 78.9012C67.198 78.82 67.2786 78.1909 67.5405 77.1357C67.9234 75.6543 67.9436 75.4514 67.6614 74.944C67.3189 74.3352 66.2508 74.0308 66.2508 74.5585C66.2508 74.7208 66.1098 74.9643 65.9486 75.1064C65.7874 75.2484 65.3642 75.8369 65.0418 76.4254C64.1954 77.9271 63.2684 78.8809 62.9863 78.5968C62.5027 78.1097 63.9133 74.9846 65.0821 73.9903C65.7068 73.4423 66.6136 73.3206 67.0166 73.7264C67.2987 74.0106 67.5607 73.8076 67.3592 73.4829C66.9158 72.7524 64.8604 72.4683 63.7319 72.9553ZM72.9814 75.7558C72.9411 77.4198 71.329 80.2811 70.7446 79.6926C70.4826 79.4288 70.6237 77.643 70.9864 76.5472C71.3088 75.5122 72.3365 74.3961 72.7799 74.5585C72.9008 74.599 73.0015 75.0861 72.9814 75.7558Z" fill="#303657"/>
<path d="M10.7306 37.2885L13.5834 30.722L16.6203 31.1844H21.3136L26.9273 30.9994L31.1605 30.4445L34.7495 29.6121L37.6944 28.9647L39.2588 28.3173L44.6884 26.1902L51.4984 23.1381L58.0322 19.2537L63.5538 15.8317L70.0877 12.1323L76.6216 8.71031L82.7874 6.58313L86.0083 5.93573H92.5422L97.9718 6.58313L108.739 10.3751L119.966 15.6468L123.371 17.7739L125.856 23.5081L126.5 25.6352V27.3L125.948 28.1324L124.567 29.3347H122.359L120.426 28.0399L117.665 23.878L117.113 23.693L111.776 20.1786V17.4965L110.671 15.3693H108.003L105.426 16.4791L100.917 18.7913L95.8552 16.2017L91.1618 14.352L85.1801 13.1496H78.9223L73.3086 13.797L67.4189 15.5543L55.2714 22.3982L44.5043 28.3173L33.2771 33.774L23.3382 36.3636L15.8841 37.2885H10.7306Z" fill="#5D9E73"/>
<path d="M26.503 64.2274H19.8833L23.3655 57.2689L19.8833 50.347H26.503L27.3736 55.6617L28.226 50.347H34.8457L31.3817 57.2689L34.8457 64.2274H28.226L27.3736 59.0953L26.503 64.2274Z" fill="#5D9E73"/>
<path d="M41.7658 64.2274H36.071L36.1798 62.9307L36.1617 51.1688L36.071 50.347H41.6751L41.6207 51.1871V62.9489L41.7658 64.2274Z" fill="#5D9E73"/>
<path d="M56.3443 50.347L56.2173 51.2054V63.296L56.308 64.2274H50.7221L48.854 57.6707V63.296L48.9447 64.2274H43.3588L43.4313 63.3142V51.2236L43.3588 50.347H48.9629L50.8127 58.1273V51.2236L50.7221 50.347H56.3443Z" fill="#5D9E73"/>
<path d="M70.2222 53.0865V55.8078L64.6181 55.8626L64.7813 52.5021L63.4936 52.703V61.981L64.5999 61.8349L64.6725 58.4013L64.0014 58.4926L64.074 57.1593L70.2222 56.9402V61.4878C70.2222 63.1133 69.805 64.2457 67.4473 64.2457H60.7007C58.3611 64.2457 57.9258 63.1133 57.9258 61.4878V53.0865C57.9258 51.4611 58.5424 50.3287 60.882 50.3287H67.4473C69.805 50.3287 70.2222 51.4611 70.2222 53.0865Z" fill="#5D9E73"/>
<path d="M81.4683 64.2274H74.6672C72.3458 64.2274 71.8924 63.1133 71.8924 61.4878V51.2602L71.8198 50.347H77.4058L77.3333 51.2419V61.9444L78.7479 61.7618L78.7841 51.2602L78.6935 50.347H84.2794L84.2069 51.1506L84.2431 61.4696C84.2431 63.0951 83.8079 64.2274 81.4683 64.2274Z" fill="#5D9E73"/>
</svg>
